<?xml version="1.0" standalone="no"?>
<!DOCTYPE svg PUBLIC "-//W3C//DTD SVG 20010904//EN"
 "http://www.w3.org/TR/2001/REC-SVG-20010904/DTD/svg10.dtd">
<svg version="1.0" xmlns="http://www.w3.org/2000/svg"
 width="520.000000pt" height="520.000000pt" viewBox="0 0 520.000000 520.000000"
 preserveAspectRatio="xMidYMid meet">
<metadata>
Created by potrace 1.11, written by Peter Selinger 2001-2013
</metadata>
<g transform="translate(0.000000,520.000000) scale(0.100000,-0.100000)"
fill="#000000" stroke="none">
<path d="M5 2600 c0 -1433 1 -2019 2 -1302 2 716 2 1888 0 2605 -1 716 -2 130
-2 -1303z"/>
<path d="M5195 2600 c0 -1433 1 -2019 2 -1302 2 716 2 1888 0 2605 -1 716 -2
130 -2 -1303z"/>
<path d="M1770 4990 c0 -5 -13 -10 -30 -10 -16 0 -30 -4 -30 -10 0 -5 -9 -10
-20 -10 -11 0 -20 -4 -20 -10 0 -5 -7 -10 -16 -10 -20 0 -44 -24 -44 -44 0 -9
-4 -16 -10 -16 -5 0 -10 -9 -10 -20 0 -11 -4 -20 -10 -20 -5 0 -10 -18 -10
-40 0 -22 -4 -40 -10 -40 -5 0 -10 -13 -10 -30 0 -16 5 -30 10 -30 6 0 10 -18
10 -40 0 -22 5 -40 10 -40 6 0 10 -9 10 -20 0 -11 5 -20 10 -20 6 0 10 -9 10
-20 0 -11 5 -20 10 -20 6 0 10 -8 10 -18 0 -10 9 -24 20 -32 11 -8 20 -22 20
-32 0 -10 5 -18 10 -18 6 0 10 -7 10 -15 0 -18 -44 -65 -60 -65 -38 0 -53 -66
-20 -90 19 -14 28 -50 12 -50 -4 0 -14 9 -22 20 -8 11 -26 20 -40 20 -14 0
-32 -9 -40 -20 -23 -31 -50 -26 -50 10 0 17 -4 30 -10 30 -5 0 -10 13 -10 28
0 16 -8 34 -20 42 -11 8 -20 22 -20 32 0 11 -7 18 -18 18 -10 0 -24 9 -32 20
-12 17 -26 20 -82 20 -39 0 -68 -4 -68 -10 0 -5 -9 -10 -20 -10 -11 0 -20 -4
-20 -10 0 -5 -9 -10 -20 -10 -13 0 -20 -7 -20 -18 0 -10 -9 -24 -20 -32 -12
-8 -20 -26 -20 -42 0 -15 -4 -28 -10 -28 -6 0 -10 -33 -10 -80 0 -47 4 -80 10
-80 6 0 10 -18 10 -40 0 -22 5 -40 10 -40 6 0 10 -18 10 -40 0 -22 5 -40 10
-40 6 0 10 -9 10 -20 0 -11 5 -20 10 -20 6 0 10 -7 10 -15 0 -20 225 -245 245
-245 8 0 15 -4 15 -10 0 -5 23 -10 50 -10 28 0 50 5 50 10 0 6 7 10 15 10 9 0
27 11 40 25 22 21 25 33 25 90 0 37 -4 65 -10 65 -5 0 -10 9 -10 20 0 11 -4
20 -10 20 -5 0 -10 7 -10 16 0 8 -18 33 -40 54 -22 21 -40 46 -40 54 0 9 -4
16 -10 16 -16 0 -12 109 4 126 20 20 39 18 56 -6 8 -11 26 -20 40 -20 14 0 32
9 40 20 8 11 22 20 32 20 11 0 18 -7 18 -20 0 -12 -7 -20 -16 -20 -28 0 -44
-27 -44 -74 l0 -46 50 0 c43 0 50 3 50 20 0 11 5 20 10 20 14 0 12 38 -2 42
-19 7 16 38 42 38 24 0 50 -22 50 -42 0 -8 9 -20 20 -28 11 -8 20 -20 20 -27
0 -19 166 -183 185 -183 8 0 15 -4 15 -10 0 -5 14 -10 30 -10 17 0 30 -4 30
-10 0 -5 23 -10 50 -10 28 0 50 5 50 10 0 6 14 10 30 10 17 0 30 5 30 10 0 6
7 10 15 10 20 0 85 65 85 85 0 8 5 15 10 15 6 0 10 9 10 20 0 11 5 20 10 20 6
0 10 29 10 68 0 56 -3 70 -20 82 -11 8 -20 21 -20 28 0 7 -18 31 -40 52 -22
21 -40 44 -40 50 0 7 -13 25 -30 40 -25 23 -30 36 -30 74 0 25 -4 46 -10 46
-5 0 -10 18 -10 40 0 22 -4 40 -10 40 -5 0 -10 14 -10 30 0 17 -4 30 -10 30
-5 0 -10 14 -10 30 0 17 -4 30 -10 30 -5 0 -10 9 -10 20 0 11 -4 20 -10 20 -5
0 -10 8 -10 18 0 10 -9 24 -20 32 -11 8 -20 21 -20 30 0 9 -9 22 -20 30 -11 8
-20 21 -20 30 0 9 -9 22 -20 30 -11 8 -20 20 -20 27 0 19 -86 103 -105 103 -8
0 -15 5 -15 10 0 6 -13 10 -30 10 -16 0 -30 5 -30 10 0 6 -9 10 -20 10 -11 0
-20 -4 -20 -10z"/>
<path d="M1793 3915 c-20 -21 -23 -35 -23 -110 0 -50 -4 -85 -10 -85 -6 0 -10
-93 -10 -260 0 -167 -4 -260 -10 -260 -6 0 -10 -47 -10 -120 0 -73 4 -120 10
-120 6 0 10 -63 10 -170 0 -163 -1 -170 -20 -170 -16 0 -20 7 -20 30 0 17 -4
30 -10 30 -5 0 -10 9 -10 20 0 11 -4 20 -10 20 -5 0 -10 9 -10 20 0 11 -4 20
-10 20 -5 0 -10 8 -10 18 0 10 -9 24 -20 32 -11 8 -20 20 -20 28 0 18 -46 62
-65 62 -8 0 -15 5 -15 10 0 6 -9 10 -20 10 -11 0 -20 5 -20 10 0 6 -33 10 -80
10 -47 0 -80 -4 -80 -10 0 -5 -7 -10 -15 -10 -20 0 -245 -225 -245 -245 0 -8
-4 -15 -10 -15 -5 0 -10 -18 -10 -40 0 -22 5 -40 10 -40 6 0 10 -8 10 -18 0
-10 9 -24 20 -32 11 -8 20 -21 20 -30 0 -9 9 -22 20 -30 11 -8 20 -21 20 -28
0 -7 18 -31 40 -52 22 -21 40 -44 40 -50 0 -22 29 -40 64 -40 l36 0 0 48 c0
36 -5 51 -20 62 -11 8 -20 22 -20 32 0 10 -4 18 -10 18 -5 0 -10 9 -10 20 0
11 -4 20 -10 20 -5 0 -10 9 -10 20 0 11 -4 20 -10 20 -5 0 -10 20 -10 45 0 35
6 52 25 70 13 14 31 25 40 25 8 0 15 5 15 10 0 6 20 10 45 10 39 0 51 -5 80
-35 19 -19 35 -41 35 -50 0 -8 5 -15 10 -15 6 0 10 -9 10 -20 0 -11 5 -20 10
-20 6 0 10 -9 10 -20 0 -11 5 -20 10 -20 6 0 10 -13 10 -30 0 -16 5 -30 10
-30 6 0 10 -8 10 -18 0 -10 9 -24 20 -32 12 -8 20 -26 20 -42 0 -15 5 -28 10
-28 6 0 10 -13 10 -30 0 -16 5 -30 10 -30 6 0 10 -9 10 -20 0 -11 5 -20 10
-20 6 0 10 -18 10 -40 0 -22 5 -40 10 -40 6 0 10 -22 10 -50 0 -27 5 -50 10
-50 6 0 10 -13 10 -30 0 -16 5 -30 10 -30 6 0 10 -18 10 -40 0 -22 5 -40 10
-40 6 0 10 -43 10 -110 0 -67 4 -110 10 -110 6 0 10 -40 10 -100 0 -93 -1
-100 -20 -100 -12 0 -20 7 -20 16 0 9 -13 29 -30 44 -16 15 -30 33 -30 39 0
17 -388 401 -405 401 -8 0 -15 5 -15 10 0 6 -7 10 -16 10 -9 0 -29 14 -44 30
-15 17 -35 30 -44 30 -9 0 -16 5 -16 10 0 6 -12 10 -26 10 -17 0 -39 14 -64
40 -21 22 -46 40 -54 40 -9 0 -16 5 -16 10 0 6 -9 10 -20 10 -11 0 -20 5 -20
10 0 6 -13 10 -30 10 -16 0 -30 5 -30 10 0 6 -28 10 -65 10 -62 0 -68 -2 -100
-35 -30 -29 -35 -41 -35 -80 0 -25 -4 -45 -10 -45 -6 0 -10 -77 -10 -210 0
-133 4 -210 10 -210 6 0 10 -30 10 -70 0 -40 4 -70 10 -70 6 0 10 -13 10 -30
0 -16 5 -30 10 -30 6 0 10 -18 10 -40 0 -22 5 -40 10 -40 6 0 10 -12 10 -26 0
-17 14 -39 40 -64 22 -21 40 -46 40 -54 0 -9 5 -16 10 -16 6 0 10 -9 10 -20 0
-16 7 -20 36 -20 19 0 42 6 50 14 16 17 19 46 4 46 -5 0 -10 14 -10 30 0 17
-4 30 -10 30 -5 0 -10 14 -10 30 0 17 -4 30 -10 30 -5 0 -10 18 -10 40 0 22
-4 40 -10 40 -5 0 -10 14 -10 30 0 17 -4 30 -10 30 -5 0 -10 14 -10 30 0 17
-4 30 -10 30 -6 0 -10 33 -10 80 0 47 4 80 10 80 6 0 10 25 10 55 0 52 3 58
45 100 42 42 75 58 75 35 0 -5 8 -10 18 -10 10 0 24 -9 32 -20 8 -11 21 -20
30 -20 9 0 22 -9 30 -20 8 -11 20 -20 28 -20 7 0 44 -31 82 -70 38 -38 74 -70
80 -70 15 0 40 -25 40 -40 0 -14 86 -100 100 -100 15 0 80 -67 80 -82 0 -8 9
-20 20 -28 11 -8 20 -22 20 -32 0 -10 5 -18 10 -18 6 0 10 -7 10 -16 0 -9 14
-29 30 -44 16 -15 30 -33 30 -40 0 -7 14 -25 30 -40 17 -15 30 -34 30 -42 0
-7 9 -20 20 -28 11 -8 20 -22 20 -32 0 -10 5 -18 10 -18 6 0 10 -9 10 -20 0
-11 5 -20 10 -20 6 0 10 -8 10 -18 0 -10 9 -24 20 -32 11 -8 20 -22 20 -32 0
-10 5 -18 10 -18 15 0 12 -70 -4 -86 -17 -16 -66 -19 -66 -4 0 6 -33 10 -80
10 -47 0 -80 4 -80 10 0 6 -18 10 -40 10 -22 0 -40 -4 -40 -10 0 -5 -18 -10
-40 -10 -22 0 -40 -4 -40 -10 0 -5 -8 -10 -18 -10 -10 0 -24 -9 -32 -20 -8
-11 -22 -20 -32 -20 -11 0 -18 -7 -18 -20 0 -11 -4 -20 -10 -20 -5 0 -10 -7
-10 -16 0 -9 -13 -29 -30 -44 -16 -15 -30 -35 -30 -44 0 -9 -4 -16 -10 -16 -6
0 -10 -37 -10 -90 0 -53 4 -90 10 -90 6 0 10 -11 10 -25 0 -56 88 -99 126 -61
16 16 19 86 4 86 -5 0 -10 9 -10 20 0 11 -4 20 -10 20 -16 0 -12 89 4 106 10
9 37 14 80 14 37 0 66 4 66 10 0 6 30 10 70 10 40 0 70 4 70 10 0 6 18 10 40
10 22 0 40 -4 40 -10 0 -5 11 -10 25 -10 28 0 135 -99 135 -125 0 -8 5 -15 10
-15 6 0 10 -42 10 -105 0 -99 2 -107 25 -130 13 -14 31 -25 40 -25 8 0 15 -4
15 -10 0 -5 11 -10 25 -10 29 0 75 40 75 65 0 8 5 15 10 15 6 0 10 13 10 28 0
16 8 34 20 42 17 12 20 26 20 92 0 45 4 78 10 78 6 0 10 9 10 20 0 11 5 20 10
20 6 0 10 -9 10 -20 0 -23 25 -27 46 -6 8 8 14 26 14 40 0 14 5 26 10 26 6 0
10 25 10 56 0 35 5 61 14 70 17 16 46 19 46 4 0 -5 9 -10 20 -10 11 0 20 5 20
10 0 6 7 10 16 10 8 0 42 27 74 60 72 74 102 79 155 25 19 -19 35 -40 35 -47
0 -8 9 -20 20 -28 11 -8 20 -22 20 -32 0 -10 5 -18 10 -18 6 0 10 -13 10 -30
0 -16 5 -30 10 -30 6 0 10 -43 10 -110 0 -67 4 -110 10 -110 6 0 10 -18 10
-40 0 -22 5 -40 10 -40 6 0 10 -32 10 -76 0 -81 11 -104 50 -104 23 0 50 -22
50 -40 0 -15 25 -40 40 -40 20 0 60 49 60 75 0 14 -4 25 -10 25 -6 0 -10 30
-10 70 0 40 4 70 10 70 6 0 10 27 10 60 0 33 4 60 10 60 6 0 10 27 10 60 0 33
4 60 10 60 6 0 10 14 10 30 0 17 5 30 10 30 6 0 10 14 10 30 0 17 5 30 10 30
6 0 10 7 10 15 0 19 84 105 103 105 7 0 19 9 27 20 8 11 21 20 30 20 9 0 22 9
30 20 8 11 21 20 30 20 9 0 22 9 30 20 8 12 26 20 42 20 15 0 28 5 28 10 0 15
49 12 66 -4 17 -17 21 -206 4 -206 -5 0 -10 -22 -10 -50 0 -27 -4 -50 -10 -50
-6 0 -10 -27 -10 -60 0 -33 -4 -60 -10 -60 -5 0 -10 -13 -10 -30 0 -16 5 -30
10 -30 6 0 10 -9 10 -20 0 -16 7 -20 36 -20 42 0 64 19 64 54 0 14 5 26 10 26
6 0 10 23 10 50 0 28 5 50 10 50 6 0 10 18 10 40 0 22 5 40 10 40 6 0 10 14
10 30 0 17 5 30 10 30 6 0 10 18 10 40 0 22 5 40 10 40 6 0 10 33 10 80 0 47
-4 80 -10 80 -5 0 -10 11 -10 25 0 29 -40 75 -65 75 -8 0 -15 5 -15 10 0 6
-22 10 -50 10 -27 0 -50 -4 -50 -10 0 -5 -22 -10 -50 -10 -27 0 -50 -4 -50
-10 0 -5 -9 -10 -20 -10 -11 0 -20 -4 -20 -10 0 -5 -8 -10 -18 -10 -10 0 -24
-9 -32 -20 -8 -11 -22 -20 -32 -20 -10 0 -18 -4 -18 -10 0 -5 -9 -10 -20 -10
-11 0 -20 -4 -20 -10 0 -5 -8 -10 -18 -10 -10 0 -24 -9 -32 -20 -8 -11 -21
-20 -28 -20 -8 0 -27 -13 -42 -30 -15 -16 -31 -30 -34 -30 -3 0 -6 14 -6 30 0
17 5 30 10 30 6 0 10 23 10 50 0 28 5 50 10 50 6 0 10 14 10 30 0 17 5 30 10
30 6 0 10 9 10 20 0 11 5 20 10 20 6 0 10 13 10 28 0 16 8 34 20 42 11 8 20
20 20 27 0 8 29 43 65 78 62 63 66 65 115 65 44 0 55 -4 85 -35 19 -19 35 -41
35 -50 0 -8 5 -15 10 -15 6 0 10 -7 10 -15 0 -48 92 -85 126 -51 16 17 20 146
4 146 -5 0 -10 14 -10 30 0 17 -4 30 -10 30 -5 0 -10 7 -10 15 0 20 -85 105
-105 105 -8 0 -15 9 -15 20 0 18 7 20 60 20 33 0 60 4 60 10 0 6 9 10 20 10
11 0 20 -4 20 -10 0 -5 13 -10 28 -10 16 0 34 -8 42 -20 8 -11 22 -20 32 -20
10 0 18 -4 18 -10 0 -5 12 -10 26 -10 28 0 54 -20 54 -42 0 -8 9 -20 20 -28
11 -8 20 -22 20 -32 0 -14 8 -18 36 -18 19 0 42 6 50 14 16 16 19 86 4 86 -5
0 -10 7 -10 15 0 19 -144 165 -163 165 -7 0 -19 9 -27 20 -8 11 -22 20 -32 20
-10 0 -18 5 -18 10 0 6 -18 10 -40 10 -22 0 -40 5 -40 10 0 6 -37 10 -90 10
-53 0 -90 -4 -90 -10 0 -5 -18 -10 -40 -10 -22 0 -40 -4 -40 -10 0 -5 -9 -10
-20 -10 -16 0 -20 7 -20 30 0 17 5 30 10 30 6 0 10 30 10 70 0 40 4 70 10 70
6 0 10 23 10 50 0 28 5 50 10 50 6 0 10 37 10 90 0 53 4 90 10 90 6 0 10 53
10 140 0 87 -4 140 -10 140 -6 0 -10 43 -10 110 0 67 -4 110 -10 110 -5 0 -10
23 -10 50 0 28 -4 50 -10 50 -6 0 -10 27 -10 60 0 33 -4 60 -10 60 -6 0 -10
40 -10 100 0 60 -4 100 -10 100 -6 0 -10 30 -10 70 0 40 -4 70 -10 70 -5 0
-10 22 -10 48 0 36 -5 51 -20 62 -11 8 -20 22 -20 32 0 10 -4 18 -10 18 -5 0
-10 7 -10 16 0 8 -7 22 -15 30 -13 14 -17 14 -30 0 -18 -17 -22 -206 -5 -206
6 0 10 -18 10 -40 0 -22 5 -40 10 -40 6 0 10 -22 10 -50 0 -27 5 -50 10 -50 6
0 10 -37 10 -90 0 -53 4 -90 10 -90 6 0 10 -27 10 -60 0 -33 4 -60 10 -60 6 0
10 -22 10 -50 0 -27 5 -50 10 -50 6 0 10 -27 10 -60 0 -33 4 -60 10 -60 6 0
10 -63 10 -170 0 -107 -4 -170 -10 -170 -6 0 -10 -37 -10 -90 0 -53 -4 -90
-10 -90 -5 0 -10 -22 -10 -50 0 -27 -4 -50 -10 -50 -5 0 -10 -18 -10 -40 0
-22 -4 -40 -10 -40 -5 0 -10 -18 -10 -40 0 -22 -4 -40 -10 -40 -5 0 -10 -13
-10 -30 0 -16 -4 -30 -10 -30 -5 0 -10 -9 -10 -20 0 -11 -4 -20 -10 -20 -5 0
-10 -13 -10 -30 0 -16 -4 -30 -10 -30 -5 0 -10 -9 -10 -20 0 -11 -4 -20 -10
-20 -5 0 -10 -9 -10 -20 0 -11 -4 -20 -10 -20 -5 0 -10 -9 -10 -20 0 -16 -7
-20 -30 -20 -27 0 -30 3 -30 30 0 17 -4 30 -10 30 -5 0 -10 23 -10 50 0 28 -4
50 -10 50 -5 0 -10 23 -10 50 0 28 -4 50 -10 50 -5 0 -10 7 -10 15 0 18 -124
145 -141 145 -6 0 -24 14 -39 30 -15 17 -35 30 -44 30 -9 0 -16 5 -16 10 0 6
-18 10 -40 10 -22 0 -40 5 -40 10 0 6 -22 10 -50 10 l-50 0 0 100 c0 60 -4
100 -10 100 -6 0 -10 27 -10 60 0 33 -4 60 -10 60 -6 0 -10 30 -10 70 0 40 -4
70 -10 70 -6 0 -10 35 -10 85 0 78 -2 88 -25 111 -22 22 -27 23 -40 10 -17
-16 -21 -106 -5 -106 6 0 10 -40 10 -100 0 -60 -4 -100 -10 -100 -5 0 -10 -13
-10 -30 0 -16 5 -30 10 -30 6 0 10 -22 10 -50 0 -27 5 -50 10 -50 6 0 10 -49
10 -126 l0 -126 -30 -28 c-16 -15 -30 -34 -30 -42 0 -7 -9 -20 -20 -28 -21
-15 -28 -70 -10 -70 6 0 10 -8 10 -18 0 -10 9 -24 20 -32 23 -17 26 -55 6 -76
-8 -8 -31 -14 -50 -14 -20 0 -36 -4 -36 -10 0 -5 -12 -10 -26 -10 -16 0 -37
-12 -54 -30 -15 -16 -33 -30 -39 -30 -17 0 -81 -67 -81 -85 0 -8 -9 -15 -20
-15 -19 0 -20 7 -20 100 0 60 -4 100 -10 100 -6 0 -10 37 -10 90 0 53 -4 90
-10 90 -5 0 -10 14 -10 30 0 17 -4 30 -10 30 -5 0 -10 9 -10 20 0 11 -4 20
-10 20 -6 0 -10 27 -10 60 0 33 -4 60 -10 60 -6 0 -10 27 -10 60 0 33 -4 60
-10 60 -6 0 -10 47 -10 120 0 73 4 120 10 120 6 0 10 18 10 40 0 22 5 40 10
40 6 0 10 57 10 150 0 93 -4 150 -10 150 -6 0 -10 37 -10 90 0 53 4 90 10 90
6 0 10 23 10 50 0 28 -4 50 -10 50 -6 0 -10 103 -10 290 0 187 4 290 10 290 6
0 10 38 10 95 0 88 -2 98 -25 120 -13 14 -25 25 -27 24 -2 0 -13 -11 -25 -24z
m822 -2090 c19 -19 35 -40 35 -47 0 -8 9 -20 20 -28 11 -8 20 -22 20 -32 0
-10 5 -18 10 -18 6 0 10 -22 10 -50 0 -27 5 -50 10 -50 6 0 10 -33 10 -80 0
-47 4 -80 10 -80 6 0 10 -47 10 -120 0 -73 -4 -120 -10 -120 -5 0 -10 -22 -10
-50 0 -27 -4 -50 -10 -50 -5 0 -10 -18 -10 -40 0 -38 -2 -40 -30 -40 -16 0
-30 5 -30 10 0 6 -8 10 -18 10 -10 0 -24 9 -32 20 -8 11 -22 20 -32 20 -10 0
-18 5 -18 10 0 6 -18 10 -40 10 -22 0 -40 5 -40 10 0 6 -9 10 -20 10 -11 0
-20 5 -20 10 0 18 -31 10 -55 -15 -14 -13 -25 -31 -25 -40 0 -8 -4 -15 -10
-15 -5 0 -10 -13 -10 -30 0 -16 -4 -30 -10 -30 -5 0 -10 -7 -10 -15 0 -20 -45
-65 -65 -65 -12 0 -15 15 -15 90 0 53 4 90 10 90 6 0 10 11 10 25 0 33 42 75
75 75 14 0 25 5 25 10 0 6 9 10 20 10 17 0 20 7 20 50 0 28 -4 50 -10 50 -5 0
-10 9 -10 20 0 11 -4 20 -10 20 -5 0 -10 18 -10 40 0 22 -4 40 -10 40 -6 0
-10 27 -10 60 0 33 4 60 10 60 6 0 10 14 10 30 0 17 5 30 10 30 6 0 10 9 10
20 0 11 5 20 10 20 6 0 10 18 10 40 0 22 5 40 10 40 6 0 10 14 10 30 0 17 5
30 10 30 6 0 10 7 10 15 0 32 24 44 88 45 58 0 65 -2 97 -35z m-439 -399 c8
-8 14 -22 14 -30 0 -9 5 -16 10 -16 6 0 10 -33 10 -80 0 -47 -4 -80 -10 -80
-5 0 -10 -22 -10 -50 0 -27 -4 -50 -10 -50 -6 0 -10 -27 -10 -60 0 -33 -4 -60
-10 -60 -6 0 -10 -45 -10 -116 0 -89 -3 -119 -15 -130 -13 -14 -17 -14 -30 0
-12 12 -15 54 -15 250 0 151 4 236 10 236 6 0 10 27 10 60 0 33 4 60 10 60 6
0 10 11 10 25 0 22 16 53 28 55 2 0 10 -6 18 -14z"/>
<path d="M3063 3885 c-15 -17 -17 -65 -3 -65 6 0 10 -9 10 -20 0 -15 7 -20 25
-20 26 0 75 39 75 60 0 20 -49 60 -72 60 -13 -1 -29 -7 -35 -15z"/>
<path d="M2690 3770 c0 -5 -9 -10 -20 -10 -11 0 -20 -4 -20 -10 0 -5 -7 -10
-15 -10 -9 0 -40 -25 -70 -55 -30 -30 -55 -61 -55 -70 0 -8 -4 -15 -10 -15 -5
0 -10 -9 -10 -20 0 -11 -4 -20 -10 -20 -6 0 -10 -27 -10 -60 0 -33 4 -60 10
-60 6 0 10 -7 10 -15 0 -25 46 -65 75 -65 14 0 25 -4 25 -10 0 -5 18 -10 40
-10 22 0 40 5 40 10 0 6 14 10 30 10 17 0 30 5 30 10 0 6 7 10 15 10 9 0 47
32 85 70 38 39 75 70 82 70 8 0 20 -9 28 -20 19 -26 36 -25 65 5 25 24 33 55
15 55 -5 0 -10 9 -10 20 0 17 -7 20 -50 20 -47 0 -50 2 -50 26 0 63 56 71 110
14 21 -22 44 -40 50 -40 17 0 40 -26 40 -44 0 -9 5 -16 10 -16 6 0 10 -13 10
-30 0 -16 5 -30 10 -30 6 0 10 -7 10 -15 0 -18 64 -85 81 -85 6 0 24 -13 39
-30 15 -16 35 -30 44 -30 9 0 16 -4 16 -10 0 -5 9 -10 20 -10 11 0 20 -4 20
-10 0 -5 14 -10 30 -10 17 0 30 -4 30 -10 0 -6 27 -10 60 -10 33 0 60 4 60 10
0 6 7 10 15 10 9 0 31 16 50 35 27 26 35 43 35 70 0 19 5 35 10 35 6 0 10 9
10 20 0 11 -4 20 -10 20 -5 0 -10 14 -10 30 0 17 -4 30 -10 30 -5 0 -10 9 -10
20 0 11 -4 20 -10 20 -5 0 -10 7 -10 15 0 19 -64 85 -82 85 -8 0 -20 9 -28 20
-8 11 -22 20 -32 20 -10 0 -18 5 -18 10 0 6 -9 10 -20 10 -11 0 -20 5 -20 10
0 6 -37 10 -90 10 -53 0 -90 -4 -90 -10 0 -5 -8 -10 -18 -10 -10 0 -24 -9 -32
-20 -15 -21 -50 -28 -50 -10 0 6 -9 10 -20 10 -11 0 -20 5 -20 10 0 6 -12 10
-26 10 -29 0 -54 21 -54 44 0 12 -10 16 -40 16 -22 0 -40 -4 -40 -10 0 -5 -9
-10 -20 -10 -11 0 -20 -4 -20 -10 0 -18 -35 -11 -50 10 -12 17 -26 20 -82 20
-39 0 -68 -4 -68 -10z"/>
<path d="M2490 3130 c0 -5 -13 -10 -30 -10 -16 0 -30 -4 -30 -10 0 -5 -7 -10
-16 -10 -8 0 -33 -19 -55 -41 l-40 -41 -18 21 c-31 36 -111 22 -111 -19 0 -19
-33 -47 -38 -32 -4 14 -42 16 -42 2 0 -5 -9 -10 -20 -10 -16 0 -20 -7 -20 -36
0 -38 18 -64 44 -64 13 0 16 -12 16 -60 0 -53 2 -60 20 -60 11 0 20 -4 20 -10
0 -18 35 -11 50 10 15 21 50 28 50 10 0 -5 20 -10 45 -10 35 0 52 -6 70 -25
14 -13 25 -29 25 -35 0 -17 26 -40 44 -40 9 0 16 -4 16 -10 0 -5 9 -10 20 -10
11 0 20 -4 20 -10 0 -6 33 -10 80 -10 47 0 80 4 80 10 0 6 7 10 16 10 20 0 44
24 44 44 0 9 5 16 10 16 6 0 10 9 10 20 0 11 5 20 10 20 6 0 10 40 10 100 0
60 -4 100 -10 100 -5 0 -10 13 -10 28 0 16 -8 34 -20 42 -11 8 -20 20 -20 28
0 18 -25 42 -44 42 -9 0 -16 5 -16 10 0 6 -9 10 -20 10 -11 0 -20 5 -20 10 0
6 -18 10 -40 10 -22 0 -40 5 -40 10 0 6 -9 10 -20 10 -11 0 -20 -4 -20 -10z
m-260 -240 c0 -27 -3 -30 -30 -30 -32 0 -40 19 -17 45 22 26 47 18 47 -15z"/>
<path d="M2030 2690 c0 -5 -7 -10 -15 -10 -19 0 -65 -44 -65 -62 0 -8 -9 -20
-20 -28 -12 -8 -20 -26 -20 -42 0 -15 -4 -28 -10 -28 -6 0 -10 -55 -10 -145
l0 -146 35 -34 c31 -32 40 -35 90 -35 30 0 55 5 55 10 0 6 7 10 15 10 19 0
105 84 105 103 0 7 9 19 20 27 12 8 20 26 20 42 0 15 5 28 10 28 6 0 10 43 10
110 0 67 -4 110 -10 110 -5 0 -10 7 -10 15 0 20 -45 65 -65 65 -8 0 -15 5 -15
10 0 6 -27 10 -60 10 -33 0 -60 -4 -60 -10z"/>
</g>
</svg>
